# xmcd
#
# Track frame offsets: 
#        182
#        13657
#        25365
#        36325
#        55352
#        68227
#        83852
#        97102
#        109062
#        120642
#
# Disc length: 1771 seconds
#
# Revision: 0
# Processed by: cddbd v1.5.1PL2 Copyright (c) Steve Scherf et al.
# Submitted via: ExactAudioCopy v0.95b4
#
DISCID=8706e90a
DTITLE=Various Artist - Chivas Regal Blues And Soul Collection
DYEAR=1900
DGENRE=Blues
TTITLE0=John Lee Hooker - One bourbon, one scotch, one beer
TTITLE1=Memphis Slim - Worried life blues
TTITLE2=B.B. King - Recession blues
TTITLE3=Yardbirds and Eric Clapton - They call it stormy monday
TTITLE4=Muddy Waters - I'm your hoochie, coochie man
TTITLE5=Eddie Floyd - Knock on wood
TTITLE6=Percy Sledge - When a man loves a woman
TTITLE7=Martha Reeves - Dancing in the street
TTITLE8=Sam and Dave - Soul man
TTITLE9=Boogie Brothers - Everybody needs somebody
EXTD=
EXTT0=
EXTT1=
EXTT2=
EXTT3=
EXTT4=
EXTT5=
EXTT6=
EXTT7=
EXTT8=
EXTT9=
PLAYORDER=
